<?xml version="1.0" encoding="UTF-8" standalone="no"?>
<svg
   xmlns:dc="http://purl.org/dc/elements/1.1/"
   xmlns:cc="http://creativecommons.org/ns#"
   xmlns:rdf="http://www.w3.org/1999/02/22-rdf-syntax-ns#"
   xmlns:svg="http://www.w3.org/2000/svg"
   xmlns="http://www.w3.org/2000/svg"
   xmlns:sodipodi="http://sodipodi.sourceforge.net/DTD/sodipodi-0.dtd"
   xmlns:inkscape="http://www.inkscape.org/namespaces/inkscape"
   width="357.25px"
   height="124px"
   viewBox="0 0 357.25 124"
   version="1.1"
   id="svg14"
   sodipodi:docname="logo.svg"
   inkscape:version="0.92.5 (2060ec1f9f, 2020-04-08)"
   fill="#ffffff">
  <metadata
     id="metadata20">
    <rdf:RDF>
      <cc:Work
         rdf:about="">
        <dc:format>image/svg+xml</dc:format>
        <dc:type
           rdf:resource="http://purl.org/dc/dcmitype/StillImage" />
      </cc:Work>
    </rdf:RDF>
  </metadata>
  <defs
     id="defs18" />
  <sodipodi:namedview
     pagecolor="#ffffff"
     bordercolor="#666666"
     borderopacity="1"
     objecttolerance="10"
     gridtolerance="10"
     guidetolerance="10"
     inkscape:pageopacity="0"
     inkscape:pageshadow="2"
     inkscape:window-width="1366"
     inkscape:window-height="707"
     id="namedview16"
     showgrid="false"
     inkscape:zoom="1.3419689"
     inkscape:cx="137.26625"
     inkscape:cy="117.21195"
     inkscape:window-x="0"
     inkscape:window-y="29"
     inkscape:window-maximized="1"
     inkscape:current-layer="layer2"
     inkscape:snap-bbox="true"
     inkscape:snap-page="true"
     inkscape:snap-global="false" />
  <g
     inkscape:groupmode="layer"
     id="layer1"
     inkscape:label="back"
     style="display:none">
    <rect
       id="rect3726"
       width="357.25"
       height="124"
       x="1.0214052e-14"
       y="3.7112173e-15"
       style="fill:#000000;fill-opacity:1;stroke-width:0.56063026" />
  </g>
  <g
     inkscape:groupmode="layer"
     id="layer2"
     inkscape:label="delant">
    <path
       d="m 90.471783,16.012039 q 3.260095,0 13.139167,0 0,17.798536 0.0988,71.194143 -3.2601,0 -13.139177,0 0,-17.798535 -0.09879,-71.194143 z"
       style="font-style:normal;font-variant:normal;font-weight:bold;font-stretch:normal;font-size:400px;line-height:1.25;font-family:BetecknaGS;-inkscape-font-specification:'BetecknaGS Bold';letter-spacing:0px;word-spacing:0px;fill:#ffffff;fill-opacity:1;stroke:none;stroke-width:0.24757762"
       id="path4627"
       inkscape:connector-curvature="0" />
    <path
       d="m 155.78097,76.413453 q -2.66735,4.828328 -6.91535,7.479173 -4.05042,2.556172 -8.89117,3.692249 -2.46977,0.473366 -5.13712,0.473366 -2.27219,0 -4.64317,-0.378692 -3.1613,-0.662713 -5.82865,-1.893461 -0.0988,7.005806 -0.0988,21.017422 -3.35888,0 -13.23796,0 0,-16.189097 -0.0988,-64.756377 3.45768,0 13.53434,0 0,0.473364 0,1.704115 2.66735,-1.325423 5.82865,-1.893461 2.37098,-0.378693 4.54438,-0.378693 2.76614,0 5.43349,0.662711 4.93954,1.136076 9.08875,3.881596 4.24801,2.840192 6.71777,7.952538 2.37098,4.828325 2.37098,10.887401 0,0.378692 0,0.473366 -0.0988,6.248422 -2.66735,11.076747 z M 144.8152,64.958014 q 0,-3.786923 -1.77824,-6.627114 -1.77823,-2.74552 -4.44558,-3.786923 -2.76614,-1.136077 -5.53229,-1.136077 -0.0988,0 -0.19758,0 -2.66735,0.09467 -4.93954,1.893462 -2.27218,1.704115 -3.1613,4.828325 -0.19758,1.230751 -0.29637,4.638981 0,0.568038 0,1.041402 0,2.934866 0.19758,3.597577 0.79032,2.934866 3.06251,4.638981 2.37098,1.704115 5.13712,1.798787 0.0988,0 0.19758,0 2.86494,0 5.53229,-1.136077 2.66735,-0.852056 4.44558,-3.502902 1.77824,-2.556174 1.77824,-6.248422 z"
       style="font-style:normal;font-variant:normal;font-weight:bold;font-stretch:normal;font-size:400px;line-height:1.25;font-family:BetecknaGS;-inkscape-font-specification:'BetecknaGS Bold';letter-spacing:0px;word-spacing:0px;fill:#ffffff;fill-opacity:1;stroke:none;stroke-width:0.24757762"
       id="path4629"
       inkscape:connector-curvature="0" />
    <path
       d="m 196.48277,16.106714 q 4.05042,0.94673 7.90327,3.881594 0.59274,0.378692 1.58064,1.136077 -1.77823,2.461499 -7.01414,9.656652 -0.39516,-0.284018 -1.67944,-1.325423 -3.65526,-2.934863 -9.28633,-2.934863 -1.28428,0 -2.37098,0.09467 -2.96372,0.378693 -4.84075,2.177482 -1.97582,1.798787 -2.1734,3.218884 -0.19758,1.230749 -0.19758,1.420095 0,1.988135 1.97582,4.354961 1.87702,2.461499 6.71777,4.070943 2.76614,0.94673 8.19963,2.745517 3.06252,1.041405 5.92745,2.840192 2.86493,1.79879 5.4335,4.638981 2.56854,2.650846 3.95163,5.964402 1.48186,3.218884 1.48186,7.195153 0,0.28402 0,2.650846 -0.0988,2.272153 -2.17341,6.627114 -6.42139,13.348903 -24.20373,13.348903 -3.35889,0 -7.11294,-0.568038 -4.05042,-0.757385 -6.81656,-1.514769 -2.86493,-0.852059 -4.05042,-1.325423 -1.28428,-0.568039 -4.64317,-2.366828 -0.49395,-0.189346 -1.38307,-0.66271 0.69153,-3.313559 2.56856,-13.254229 0.59275,0.284018 2.27219,1.041403 8.00205,3.502904 13.63312,4.922999 3.16131,0.757384 6.12503,0.757384 2.96373,0 6.02624,-1.325423 2.96372,-1.420094 4.64317,-3.976268 1.38307,-2.082808 1.38307,-4.354961 0,-1.420095 -1.28428,-4.165615 -1.28428,-2.745517 -5.92745,-4.07094 -6.02624,-2.556174 -8.00205,-3.124213 -6.81656,-1.988133 -11.16336,-5.585709 -4.34679,-3.597576 -5.82866,-7.289827 -1.38307,-3.786923 -1.38307,-7.005807 0,-1.230748 0.39517,-4.07094 0.39516,-2.840192 2.96372,-6.532443 2.56856,-3.692248 7.40931,-5.964401 4.74196,-2.272154 10.57061,-2.272154 6.32261,0 10.37303,0.946732 z"
       style="font-style:normal;font-variant:normal;font-weight:bold;font-stretch:normal;font-size:400px;line-height:1.25;font-family:BetecknaGS;-inkscape-font-specification:'BetecknaGS Bold';letter-spacing:0px;word-spacing:0px;fill:#ffffff;fill-opacity:1;stroke:none;stroke-width:0.24757762"
       id="path4631"
       inkscape:connector-curvature="0" />
    <path
       d="m 217.22884,54.733323 q 1.97582,-4.733653 5.63107,-7.573845 3.55647,-2.934866 7.90326,-4.449635 3.85285,-1.230749 7.80448,-1.230749 0.69152,0 1.38306,0.09467 4.54439,0.189346 8.69359,2.082808 0.19759,0 0.49395,0.189346 0,-0.473364 0,-1.798787 3.3589,0 13.53435,0 -0.0988,11.360767 -0.0988,45.253724 -3.35887,0 -13.33673,0 0,-0.378693 0,-1.609444 -2.76615,1.230751 -5.92745,1.988136 -2.37098,0.378692 -4.64317,0.378692 -2.66736,0 -5.13712,-0.473366 -4.84075,-1.136077 -8.89119,-3.692249 -4.1492,-2.650845 -6.81655,-7.479173 -2.66736,-4.922999 -2.76615,-11.076747 0,-0.28402 0,-0.473366 0,-5.491038 2.17341,-10.130017 z m 10.5706,10.319363 q 0,3.786922 1.87703,6.627114 1.77825,2.650846 4.54439,3.502905 2.86492,1.136076 5.82864,1.136076 0.0988,0 0.19759,0 2.86493,-0.09467 5.2359,-1.893461 2.37098,-1.798789 3.26009,-4.733653 0.1976,-0.946731 0.1976,-3.40823 0,-0.662713 0,-1.420097 -0.0988,-3.597577 -0.29638,-4.828325 -0.69154,-2.74552 -2.46976,-4.354961 -1.87703,-1.79879 -4.05042,-2.366828 -1.38308,-0.284018 -2.76614,-0.284018 -1.08671,0 -2.17341,0.189346 -2.56855,0.473364 -4.64317,1.988133 -1.97582,1.325423 -3.35888,3.881597 -1.38308,2.650846 -1.38308,5.964402 z"
       style="font-style:normal;font-variant:normal;font-weight:bold;font-stretch:normal;font-size:400px;line-height:1.25;font-family:BetecknaGS;-inkscape-font-specification:'BetecknaGS Bold';letter-spacing:0px;word-spacing:0px;fill:#ffffff;fill-opacity:1;stroke:none;stroke-width:0.24757762"
       id="path4633"
       inkscape:connector-curvature="0" />
    <path
       d="M 90.166021,99.409264 H 263.04634 V 111.33205 H 90.166021 Z"
       id="rect18"
       inkscape:connector-curvature="0"
       style="stroke-width:1.13845921" />
  </g>
</svg>
