<?xml version="1.0" encoding="UTF-8" standalone="no"?>
<svg
   xmlns:dc="http://purl.org/dc/elements/1.1/"
   xmlns:cc="http://creativecommons.org/ns#"
   xmlns:rdf="http://www.w3.org/1999/02/22-rdf-syntax-ns#"
   xmlns:svg="http://www.w3.org/2000/svg"
   xmlns="http://www.w3.org/2000/svg"
   xmlns:sodipodi="http://sodipodi.sourceforge.net/DTD/sodipodi-0.dtd"
   xmlns:inkscape="http://www.inkscape.org/namespaces/inkscape"
   width="357.25px"
   height="124px"
   viewBox="0 0 357.25 124"
   version="1.1"
   id="svg14"
   sodipodi:docname="logo.svg"
   inkscape:version="0.92.5 (2060ec1f9f, 2020-04-08)"
   fill="#ffffff">
  <metadata
     id="metadata20">
    <rdf:RDF>
      <cc:Work
         rdf:about="">
        <dc:format>image/svg+xml</dc:format>
        <dc:type
           rdf:resource="http://purl.org/dc/dcmitype/StillImage" />
      </cc:Work>
    </rdf:RDF>
  </metadata>
  <defs
     id="defs18" />
  <sodipodi:namedview
     pagecolor="#ffffff"
     bordercolor="#666666"
     borderopacity="1"
     objecttolerance="10"
     gridtolerance="10"
     guidetolerance="10"
     inkscape:pageopacity="0"
     inkscape:pageshadow="2"
     inkscape:window-width="1366"
     inkscape:window-height="707"
     id="namedview16"
     showgrid="false"
     inkscape:zoom="1.3419689"
     inkscape:cx="20.91578"
     inkscape:cy="117.21195"
     inkscape:window-x="0"
     inkscape:window-y="29"
     inkscape:window-maximized="1"
     inkscape:current-layer="layer2"
     inkscape:snap-bbox="true"
     inkscape:snap-page="true"
     inkscape:snap-global="false" />
  <g
     inkscape:groupmode="layer"
     id="layer1"
     inkscape:label="back"
     style="display:none">
    <rect
       id="rect3726"
       width="357.25"
       height="124"
       x="1.0214052e-14"
       y="3.7112173e-15"
       style="fill:#000000;fill-opacity:1;stroke-width:0.56063026" />
  </g>
  <g
     inkscape:groupmode="layer"
     id="layer2"
     inkscape:label="delant">
    <g
       id="flowRoot4638"
       style="font-style:normal;font-variant:normal;font-weight:bold;font-stretch:normal;font-size:40px;line-height:1.25;font-family:sans-serif;-inkscape-font-specification:'sans-serif Bold';letter-spacing:0px;word-spacing:0px;display:inline;opacity:0.97000002;fill:#ffffff;fill-opacity:1;stroke:none"
       transform="matrix(0.25290439,0,0,0.24236304,-47.801628,-115.25283)"
       aria-label="IpSa">
      <path
         inkscape:connector-curvature="0"
         id="path4627"
         style="font-style:normal;font-variant:normal;font-weight:bold;font-stretch:normal;font-size:400px;font-family:BetecknaGS;-inkscape-font-specification:'BetecknaGS Bold';fill:#ffffff;fill-opacity:1"
         d="m 552.63477,541.60432 q 12.89062,0 51.95312,0 0,73.4375 0.39063,293.75 -12.89063,0 -51.95313,0 0,-73.4375 -0.39062,-293.75 z" />
      <path
         inkscape:connector-curvature="0"
         id="path4629"
         style="font-style:normal;font-variant:normal;font-weight:bold;font-stretch:normal;font-size:400px;font-family:BetecknaGS;-inkscape-font-specification:'BetecknaGS Bold';fill:#ffffff;fill-opacity:1"
         d="m 804.97852,790.82307 q -10.54688,19.92188 -27.34375,30.85938 -16.01563,10.54687 -35.15625,15.23437 -9.76563,1.95313 -20.3125,1.95313 -8.98438,0 -18.35938,-1.5625 -12.5,-2.73438 -23.04687,-7.8125 -0.39063,28.90625 -0.39063,86.71875 -13.28125,0 -52.34375,0 0,-66.79688 -0.39062,-267.1875 13.67187,0 53.51562,0 0,1.95312 0,7.03125 10.54688,-5.46875 23.04688,-7.8125 9.375,-1.5625 17.96875,-1.5625 10.9375,0 21.48437,2.73437 19.53125,4.6875 35.9375,16.01563 16.79688,11.71875 26.5625,32.8125 9.375,19.92187 9.375,44.92187 0,1.5625 0,1.95313 -0.39062,25.78125 -10.54687,45.70312 z m -43.35938,-47.26562 q 0,-15.625 -7.03125,-27.34375 -7.03125,-11.32813 -17.57812,-15.625 -10.9375,-4.6875 -21.875,-4.6875 -0.39063,0 -0.78125,0 -10.54688,0.39062 -19.53125,7.8125 -8.98438,7.03125 -12.5,19.92187 -0.78125,5.07813 -1.17188,19.14063 0,2.34375 0,4.29687 0,12.10938 0.78125,14.84375 3.125,12.10938 12.10938,19.14063 9.375,7.03125 20.3125,7.42187 0.39062,0 0.78125,0 11.32812,0 21.875,-4.6875 10.54687,-3.51562 17.57812,-14.45312 7.03125,-10.54688 7.03125,-25.78125 z" />
      <path
         inkscape:connector-curvature="0"
         id="path4631"
         style="font-style:normal;font-variant:normal;font-weight:bold;font-stretch:normal;font-size:400px;font-family:BetecknaGS;-inkscape-font-specification:'BetecknaGS Bold';fill:#ffffff;fill-opacity:1"
         d="m 965.91602,541.99495 q 16.01562,3.90625 31.25,16.01562 2.34375,1.5625 6.24998,4.6875 -7.03123,10.15625 -27.73436,39.84375 -1.5625,-1.17187 -6.64062,-5.46875 -14.45313,-12.10937 -36.71875,-12.10937 -5.07813,0 -9.375,0.39062 -11.71875,1.5625 -19.14063,8.98438 -7.8125,7.42187 -8.59375,13.28125 -0.78125,5.07812 -0.78125,5.85937 0,8.20313 7.8125,17.96875 7.42188,10.15625 26.5625,16.79688 10.9375,3.90625 32.42188,11.32812 12.10937,4.29688 23.4375,11.71875 11.32812,7.42188 21.48438,19.14063 10.1562,10.9375 15.625,24.60937 5.8594,13.28125 5.8594,29.6875 0,1.17188 0,10.9375 -0.3907,9.375 -8.5938,27.34375 -25.39061,55.07813 -95.70311,55.07813 -13.28125,0 -28.125,-2.34375 -16.01562,-3.125 -26.95312,-6.25 -11.32813,-3.51563 -16.01563,-5.46875 -5.07812,-2.34375 -18.35937,-9.76563 -1.95313,-0.78125 -5.46875,-2.73437 2.73437,-13.67188 10.15625,-54.6875 2.34375,1.17187 8.98437,4.29687 31.64063,14.45313 53.90625,20.3125 12.5,3.125 24.21875,3.125 11.71875,0 23.82813,-5.46875 11.71875,-5.85937 18.35937,-16.40625 5.46875,-8.59375 5.46875,-17.96875 0,-5.85937 -5.07812,-17.1875 -5.07813,-11.32812 -23.4375,-16.79687 -23.82813,-10.54688 -31.64063,-12.89063 -26.95312,-8.20312 -44.14062,-23.04687 -17.1875,-14.84375 -23.04688,-30.07813 -5.46875,-15.625 -5.46875,-28.90625 0,-5.07812 1.5625,-16.79687 1.5625,-11.71875 11.71875,-26.95313 10.15625,-15.23437 29.29688,-24.60937 18.75,-9.375 41.79687,-9.375 25,0 41.01563,3.90625 z" />
      <path
         inkscape:connector-curvature="0"
         id="path4633"
         style="font-style:normal;font-variant:normal;font-weight:bold;font-stretch:normal;font-size:400px;font-family:BetecknaGS;-inkscape-font-specification:'BetecknaGS Bold';fill:#ffffff;fill-opacity:1"
         d="m 1047.9473,701.36995 q 7.8125,-19.53125 22.2656,-31.25 14.0625,-12.10938 31.25,-18.35938 15.2344,-5.07812 30.8594,-5.07812 2.7343,0 5.4687,0.39062 17.9688,0.78125 34.375,8.59375 0.7813,0 1.9531,0.78125 0,-1.95312 0,-7.42187 13.2813,0 53.5157,0 -0.3907,46.875 -0.3907,186.71875 -13.2812,0 -52.7343,0 0,-1.5625 0,-6.64063 -10.9375,5.07813 -23.4375,8.20313 -9.375,1.5625 -18.3594,1.5625 -10.5469,0 -20.3125,-1.95313 -19.1406,-4.6875 -35.1563,-15.23437 -16.4062,-10.9375 -26.9531,-30.85938 -10.5469,-20.3125 -10.9375,-45.70312 0,-1.17188 0,-1.95313 0,-22.65625 8.5938,-41.79687 z m 41.7968,42.57812 q 0,15.625 7.4219,27.34375 7.0313,10.9375 17.9688,14.45313 11.3281,4.6875 23.0468,4.6875 0.3907,0 0.7813,0 11.3281,-0.39063 20.7031,-7.8125 9.375,-7.42188 12.8906,-19.53125 0.7813,-3.90625 0.7813,-14.0625 0,-2.73438 0,-5.85938 -0.3906,-14.84375 -1.1719,-19.92187 -2.7344,-11.32813 -9.7656,-17.96875 -7.4219,-7.42188 -16.0156,-9.76563 -5.4688,-1.17187 -10.9375,-1.17187 -4.2969,0 -8.5938,0.78125 -10.1562,1.95312 -18.3594,8.20312 -7.8125,5.46875 -13.2812,16.01563 -5.4688,10.9375 -5.4688,24.60937 z" />
    </g>
  </g>
</svg>
