<?xml version="1.0" encoding="UTF-8" standalone="no"?>
<svg
   xmlns:dc="http://purl.org/dc/elements/1.1/"
   xmlns:cc="http://creativecommons.org/ns#"
   xmlns:rdf="http://www.w3.org/1999/02/22-rdf-syntax-ns#"
   xmlns:svg="http://www.w3.org/2000/svg"
   xmlns="http://www.w3.org/2000/svg"
   xmlns:sodipodi="http://sodipodi.sourceforge.net/DTD/sodipodi-0.dtd"
   xmlns:inkscape="http://www.inkscape.org/namespaces/inkscape"
   width="357.25px"
   height="124px"
   viewBox="0 0 357.25 124"
   version="1.1"
   id="svg14"
   sodipodi:docname="portada_logo.svg"
   inkscape:version="0.92.5 (2060ec1f9f, 2020-04-08)"
   fill="#ffffff">
  <metadata
     id="metadata20">
    <rdf:RDF>
      <cc:Work
         rdf:about="">
        <dc:format>image/svg+xml</dc:format>
        <dc:type
           rdf:resource="http://purl.org/dc/dcmitype/StillImage" />
        <dc:title></dc:title>
      </cc:Work>
    </rdf:RDF>
  </metadata>
  <defs
     id="defs18" />
  <sodipodi:namedview
     pagecolor="#ffffff"
     bordercolor="#666666"
     borderopacity="1"
     objecttolerance="10"
     gridtolerance="10"
     guidetolerance="10"
     inkscape:pageopacity="0"
     inkscape:pageshadow="2"
     inkscape:window-width="1366"
     inkscape:window-height="707"
     id="namedview16"
     showgrid="false"
     inkscape:zoom="1.3419689"
     inkscape:cx="116.29802"
     inkscape:cy="87.405"
     inkscape:window-x="0"
     inkscape:window-y="29"
     inkscape:window-maximized="1"
     inkscape:current-layer="layer1"
     inkscape:snap-bbox="true"
     inkscape:snap-page="true"
     inkscape:snap-global="false" />
  <g
     inkscape:groupmode="layer"
     id="layer1"
     inkscape:label="back"
     style="display:none">
    <rect
       id="rect3726"
       width="357.25"
       height="124"
       x="1.0214052e-14"
       y="3.7112173e-15"
       style="fill:#000000;fill-opacity:1;stroke-width:0.56063026" />
  </g>
  <g
     inkscape:groupmode="layer"
     id="layer2"
     inkscape:label="delant">
    <g
       id="flowRoot4638"
       style="font-style:normal;font-variant:normal;font-weight:bold;font-stretch:normal;font-size:40px;line-height:1.25;font-family:sans-serif;-inkscape-font-specification:'sans-serif Bold';letter-spacing:0px;word-spacing:0px;display:inline;opacity:0.97000002;fill:#ffffff;fill-opacity:1;stroke:none"
       transform="matrix(0.27451825,0,0,0.2525731,-64.933082,-130.62641)"
       aria-label="IpSa">
      <path
         inkscape:connector-curvature="0"
         id="path4627"
         style="font-style:normal;font-variant:normal;font-weight:bold;font-stretch:normal;font-size:400px;font-family:BetecknaGS;-inkscape-font-specification:'BetecknaGS Bold';fill:#ffffff;fill-opacity:1"
         d="m 552.63477,541.60432 q 12.89062,0 51.95312,0 0,73.4375 0.39063,293.75 -12.89063,0 -51.95313,0 0,-73.4375 -0.39062,-293.75 z" />
      <path
         inkscape:connector-curvature="0"
         id="path4629"
         style="font-style:normal;font-variant:normal;font-weight:bold;font-stretch:normal;font-size:400px;font-family:BetecknaGS;-inkscape-font-specification:'BetecknaGS Bold';fill:#ffffff;fill-opacity:1"
         d="m 804.97852,790.82307 q -10.54688,19.92188 -27.34375,30.85938 -16.01563,10.54687 -35.15625,15.23437 -9.76563,1.95313 -20.3125,1.95313 -8.98438,0 -18.35938,-1.5625 -12.5,-2.73438 -23.04687,-7.8125 -0.39063,28.90625 -0.39063,86.71875 -13.28125,0 -52.34375,0 0,-66.79688 -0.39062,-267.1875 13.67187,0 53.51562,0 0,1.95312 0,7.03125 10.54688,-5.46875 23.04688,-7.8125 9.375,-1.5625 17.96875,-1.5625 10.9375,0 21.48437,2.73437 19.53125,4.6875 35.9375,16.01563 16.79688,11.71875 26.5625,32.8125 9.375,19.92187 9.375,44.92187 0,1.5625 0,1.95313 -0.39062,25.78125 -10.54687,45.70312 z m -43.35938,-47.26562 q 0,-15.625 -7.03125,-27.34375 -7.03125,-11.32813 -17.57812,-15.625 -10.9375,-4.6875 -21.875,-4.6875 -0.39063,0 -0.78125,0 -10.54688,0.39062 -19.53125,7.8125 -8.98438,7.03125 -12.5,19.92187 -0.78125,5.07813 -1.17188,19.14063 0,2.34375 0,4.29687 0,12.10938 0.78125,14.84375 3.125,12.10938 12.10938,19.14063 9.375,7.03125 20.3125,7.42187 0.39062,0 0.78125,0 11.32812,0 21.875,-4.6875 10.54687,-3.51562 17.57812,-14.45312 7.03125,-10.54688 7.03125,-25.78125 z" />
      <path
         inkscape:connector-curvature="0"
         id="path4631"
         style="font-style:normal;font-variant:normal;font-weight:bold;font-stretch:normal;font-size:400px;font-family:BetecknaGS;-inkscape-font-specification:'BetecknaGS Bold';fill:#ffffff;fill-opacity:1"
         d="m 965.91602,541.99495 q 16.01562,3.90625 31.25,16.01562 2.34375,1.5625 6.24998,4.6875 -7.03123,10.15625 -27.73436,39.84375 -1.5625,-1.17187 -6.64062,-5.46875 -14.45313,-12.10937 -36.71875,-12.10937 -5.07813,0 -9.375,0.39062 -11.71875,1.5625 -19.14063,8.98438 -7.8125,7.42187 -8.59375,13.28125 -0.78125,5.07812 -0.78125,5.85937 0,8.20313 7.8125,17.96875 7.42188,10.15625 26.5625,16.79688 10.9375,3.90625 32.42188,11.32812 12.10937,4.29688 23.4375,11.71875 11.32812,7.42188 21.48438,19.14063 10.1562,10.9375 15.625,24.60937 5.8594,13.28125 5.8594,29.6875 0,1.17188 0,10.9375 -0.3907,9.375 -8.5938,27.34375 -25.39061,55.07813 -95.70311,55.07813 -13.28125,0 -28.125,-2.34375 -16.01562,-3.125 -26.95312,-6.25 -11.32813,-3.51563 -16.01563,-5.46875 -5.07812,-2.34375 -18.35937,-9.76563 -1.95313,-0.78125 -5.46875,-2.73437 2.73437,-13.67188 10.15625,-54.6875 2.34375,1.17187 8.98437,4.29687 31.64063,14.45313 53.90625,20.3125 12.5,3.125 24.21875,3.125 11.71875,0 23.82813,-5.46875 11.71875,-5.85937 18.35937,-16.40625 5.46875,-8.59375 5.46875,-17.96875 0,-5.85937 -5.07812,-17.1875 -5.07813,-11.32812 -23.4375,-16.79687 -23.82813,-10.54688 -31.64063,-12.89063 -26.95312,-8.20312 -44.14062,-23.04687 -17.1875,-14.84375 -23.04688,-30.07813 -5.46875,-15.625 -5.46875,-28.90625 0,-5.07812 1.5625,-16.79687 1.5625,-11.71875 11.71875,-26.95313 10.15625,-15.23437 29.29688,-24.60937 18.75,-9.375 41.79687,-9.375 25,0 41.01563,3.90625 z" />
      <path
         inkscape:connector-curvature="0"
         id="path4633"
         style="font-style:normal;font-variant:normal;font-weight:bold;font-stretch:normal;font-size:400px;font-family:BetecknaGS;-inkscape-font-specification:'BetecknaGS Bold';fill:#ffffff;fill-opacity:1"
         d="m 1047.9473,701.36995 q 7.8125,-19.53125 22.2656,-31.25 14.0625,-12.10938 31.25,-18.35938 15.2344,-5.07812 30.8594,-5.07812 2.7343,0 5.4687,0.39062 17.9688,0.78125 34.375,8.59375 0.7813,0 1.9531,0.78125 0,-1.95312 0,-7.42187 13.2813,0 53.5157,0 -0.3907,46.875 -0.3907,186.71875 -13.2812,0 -52.7343,0 0,-1.5625 0,-6.64063 -10.9375,5.07813 -23.4375,8.20313 -9.375,1.5625 -18.3594,1.5625 -10.5469,0 -20.3125,-1.95313 -19.1406,-4.6875 -35.1563,-15.23437 -16.4062,-10.9375 -26.9531,-30.85938 -10.5469,-20.3125 -10.9375,-45.70312 0,-1.17188 0,-1.95313 0,-22.65625 8.5938,-41.79687 z m 41.7968,42.57812 q 0,15.625 7.4219,27.34375 7.0313,10.9375 17.9688,14.45313 11.3281,4.6875 23.0468,4.6875 0.3907,0 0.7813,0 11.3281,-0.39063 20.7031,-7.8125 9.375,-7.42188 12.8906,-19.53125 0.7813,-3.90625 0.7813,-14.0625 0,-2.73438 0,-5.85938 -0.3906,-14.84375 -1.1719,-19.92187 -2.7344,-11.32813 -9.7656,-17.96875 -7.4219,-7.42188 -16.0156,-9.76563 -5.4688,-1.17187 -10.9375,-1.17187 -4.2969,0 -8.5938,0.78125 -10.1562,1.95312 -18.3594,8.20312 -7.8125,5.46875 -13.2812,16.01563 -5.4688,10.9375 -5.4688,24.60937 z" />
    </g>
    <path
       inkscape:connector-curvature="0"
       id="rect4694"
       d="m 132.13078,87.76731 h 141.67245 v 12.49564 H 132.13078 Z"
       style="display:inline;opacity:0.97000002;fill:#ffffff;fill-opacity:1;stroke-width:0.24508418" />
    <path
       inkscape:connector-curvature="0"
       id="rect4696"
       d="m 87.667735,87.76731 h 14.012535 v 12.49564 H 87.667735 Z"
       style="display:inline;opacity:0.97000002;fill:#ffffff;fill-opacity:1;stroke-width:0.21587092" />
    <g
       id="flowRoot4703"
       style="font-style:normal;font-weight:normal;font-size:40px;line-height:1.25;font-family:sans-serif;letter-spacing:0px;word-spacing:0px;display:inline;opacity:0.97000002;fill:#ffffff;fill-opacity:1;stroke:none"
       transform="matrix(0.18428011,0,0,0.21019849,20.710774,-112.37009)"
       aria-label="INTEGRAL PROVEEDORES - GPO SAN MARINO">
      <path
         inkscape:connector-curvature="0"
         id="path4638"
         style="font-style:normal;font-variant:normal;font-weight:bold;font-stretch:normal;font-family:sans-serif;-inkscape-font-specification:'sans-serif Bold';fill:#ffffff;fill-opacity:1"
         d="m 363.67187,1060.4043 h 7.51954 v 29.1602 h -7.51954 z" />
      <path
         inkscape:connector-curvature="0"
         id="path4640"
         style="font-style:normal;font-variant:normal;font-weight:bold;font-stretch:normal;font-family:sans-serif;-inkscape-font-specification:'sans-serif Bold';fill:#ffffff;fill-opacity:1"
         d="m 378.55469,1060.4043 h 8.39843 l 10.60547,20 v -20 h 7.12891 v 29.1602 h -8.39844 l -10.60547,-20 v 20 h -7.1289 z" />
      <path
         inkscape:connector-curvature="0"
         id="path4642"
         style="font-style:normal;font-variant:normal;font-weight:bold;font-stretch:normal;font-family:sans-serif;-inkscape-font-specification:'sans-serif Bold';fill:#ffffff;fill-opacity:1"
         d="m 408.55469,1060.4043 h 26.875 v 5.6836 h -9.66797 v 23.4766 h -7.51953 v -23.4766 h -9.6875 z" />
      <path
         inkscape:connector-curvature="0"
         id="path4644"
         style="font-style:normal;font-variant:normal;font-weight:bold;font-stretch:normal;font-family:sans-serif;-inkscape-font-specification:'sans-serif Bold';fill:#ffffff;fill-opacity:1"
         d="m 439.31641,1060.4043 h 20.29296 v 5.6836 h -12.77343 v 5.4297 h 12.01172 v 5.6836 h -12.01172 v 6.6797 h 13.20312 v 5.6836 h -20.72265 z" />
      <path
         inkscape:connector-curvature="0"
         id="path4646"
         style="font-style:normal;font-variant:normal;font-weight:bold;font-stretch:normal;font-family:sans-serif;-inkscape-font-specification:'sans-serif Bold';fill:#ffffff;fill-opacity:1"
         d="m 492.85156,1087.3965 q -2.8125,1.3672 -5.83984,2.0508 -3.02735,0.6836 -6.25,0.6836 -7.28516,0 -11.54297,-4.0625 -4.25781,-4.0821 -4.25781,-11.0547 0,-7.0508 4.33593,-11.0938 4.33594,-4.0429 11.875,-4.0429 2.91016,0 5.56641,0.5468 2.67578,0.5469 5.03906,1.6211 v 6.0352 q -2.4414,-1.3867 -4.86328,-2.0703 -2.40234,-0.6836 -4.82422,-0.6836 -4.49218,0 -6.93359,2.5195 -2.42188,2.5 -2.42188,7.168 0,4.6289 2.34375,7.1484 2.34375,2.5195 6.66016,2.5195 1.17188,0 2.16797,-0.1367 1.01562,-0.1562 1.81641,-0.4687 v -5.6641 h -4.58985 v -5.0391 h 11.71875 z" />
      <path
         inkscape:connector-curvature="0"
         id="path4648"
         style="font-style:normal;font-variant:normal;font-weight:bold;font-stretch:normal;font-family:sans-serif;-inkscape-font-specification:'sans-serif Bold';fill:#ffffff;fill-opacity:1"
         d="m 510.15625,1073.334 q 2.36328,0 3.37891,-0.8789 1.03515,-0.8789 1.03515,-2.8906 0,-1.9922 -1.03515,-2.8516 -1.01563,-0.8594 -3.37891,-0.8594 h -3.16406 v 7.4805 z m -3.16406,5.1953 v 11.0352 h -7.51953 v -29.1602 h 11.48437 q 5.76172,0 8.4375,1.9336 2.69531,1.9336 2.69531,6.1133 0,2.8906 -1.40625,4.7461 -1.38672,1.8554 -4.19922,2.7343 1.54297,0.3516 2.75391,1.6016 1.23047,1.2305 2.48047,3.75 l 4.08203,8.2813 h -8.00781 l -3.55469,-7.2461 q -1.07422,-2.1875 -2.1875,-2.9883 -1.09375,-0.8008 -2.92969,-0.8008 z" />
      <path
         inkscape:connector-curvature="0"
         id="path4650"
         style="font-style:normal;font-variant:normal;font-weight:bold;font-stretch:normal;font-family:sans-serif;-inkscape-font-specification:'sans-serif Bold';fill:#ffffff;fill-opacity:1"
         d="m 547.96875,1084.252 h -11.75781 l -1.85547,5.3125 h -7.5586 l 10.80079,-29.1602 h 8.96484 l 10.80078,29.1602 h -7.55859 z m -9.88281,-5.4102 h 7.98828 l -3.98438,-11.6016 z" />
      <path
         inkscape:connector-curvature="0"
         id="path4652"
         style="font-style:normal;font-variant:normal;font-weight:bold;font-stretch:normal;font-family:sans-serif;-inkscape-font-specification:'sans-serif Bold';fill:#ffffff;fill-opacity:1"
         d="M 561.23047,1060.4043 H 568.75 v 23.4766 h 13.20312 v 5.6836 h -20.72265 z" />
      <path
         inkscape:connector-curvature="0"
         id="path4654"
         style="font-style:normal;font-variant:normal;font-weight:bold;font-stretch:normal;font-family:sans-serif;-inkscape-font-specification:'sans-serif Bold';fill:#ffffff;fill-opacity:1"
         d="M 600.64453,1060.4043 H 613.125 q 5.56641,0 8.53516,2.4805 2.98828,2.4609 2.98828,7.0312 0,4.5899 -2.98828,7.0703 -2.96875,2.461 -8.53516,2.461 h -4.96094 v 10.1172 h -7.51953 z m 7.51953,5.4492 v 8.1445 h 4.16016 q 2.1875,0 3.3789,-1.0546 1.19141,-1.0743 1.19141,-3.0274 0,-1.9531 -1.19141,-3.0078 -1.1914,-1.0547 -3.3789,-1.0547 z" />
      <path
         inkscape:connector-curvature="0"
         id="path4656"
         style="font-style:normal;font-variant:normal;font-weight:bold;font-stretch:normal;font-family:sans-serif;-inkscape-font-specification:'sans-serif Bold';fill:#ffffff;fill-opacity:1"
         d="m 640.64453,1073.334 q 2.36328,0 3.37891,-0.8789 1.03515,-0.8789 1.03515,-2.8906 0,-1.9922 -1.03515,-2.8516 -1.01563,-0.8594 -3.37891,-0.8594 h -3.16406 v 7.4805 z m -3.16406,5.1953 v 11.0352 h -7.51953 v -29.1602 h 11.48437 q 5.76172,0 8.4375,1.9336 2.69531,1.9336 2.69531,6.1133 0,2.8906 -1.40625,4.7461 -1.38671,1.8554 -4.19921,2.7343 1.54296,0.3516 2.7539,1.6016 1.23047,1.2305 2.48047,3.75 l 4.08203,8.2813 h -8.00781 l -3.55469,-7.2461 q -1.07422,-2.1875 -2.1875,-2.9883 -1.09375,-0.8008 -2.92969,-0.8008 z" />
      <path
         inkscape:connector-curvature="0"
         id="path4658"
         style="font-style:normal;font-variant:normal;font-weight:bold;font-stretch:normal;font-family:sans-serif;-inkscape-font-specification:'sans-serif Bold';fill:#ffffff;fill-opacity:1"
         d="m 674.08203,1065.3262 q -3.4375,0 -5.33203,2.539 -1.89453,2.5391 -1.89453,7.1485 0,4.5898 1.89453,7.1289 1.89453,2.539 5.33203,2.539 3.45703,0 5.35156,-2.539 1.89453,-2.5391 1.89453,-7.1289 0,-4.6094 -1.89453,-7.1485 -1.89453,-2.539 -5.35156,-2.539 z m 0,-5.4492 q 7.03125,0 11.01563,4.0234 3.98437,4.0234 3.98437,11.1133 0,7.0703 -3.98437,11.0937 -3.98438,4.0235 -11.01563,4.0235 -7.01172,0 -11.01562,-4.0235 -3.98438,-4.0234 -3.98438,-11.0937 0,-7.0899 3.98438,-11.1133 4.0039,-4.0234 11.01562,-4.0234 z" />
      <path
         inkscape:connector-curvature="0"
         id="path4660"
         style="font-style:normal;font-variant:normal;font-weight:bold;font-stretch:normal;font-family:sans-serif;-inkscape-font-specification:'sans-serif Bold';fill:#ffffff;fill-opacity:1"
         d="m 690.21484,1060.4043 h 7.5586 l 7.73437,21.5234 7.71485,-21.5234 h 7.55859 l -10.80078,29.1602 h -8.96485 z" />
      <path
         inkscape:connector-curvature="0"
         id="path4662"
         style="font-style:normal;font-variant:normal;font-weight:bold;font-stretch:normal;font-family:sans-serif;-inkscape-font-specification:'sans-serif Bold';fill:#ffffff;fill-opacity:1"
         d="m 724.64844,1060.4043 h 20.29297 v 5.6836 h -12.77344 v 5.4297 h 12.01172 v 5.6836 h -12.01172 v 6.6797 h 13.20312 v 5.6836 h -20.72265 z" />
      <path
         inkscape:connector-curvature="0"
         id="path4664"
         style="font-style:normal;font-variant:normal;font-weight:bold;font-stretch:normal;font-family:sans-serif;-inkscape-font-specification:'sans-serif Bold';fill:#ffffff;fill-opacity:1"
         d="m 751.97266,1060.4043 h 20.29296 v 5.6836 h -12.77343 v 5.4297 h 12.01172 v 5.6836 h -12.01172 v 6.6797 h 13.20312 v 5.6836 h -20.72265 z" />
      <path
         inkscape:connector-curvature="0"
         id="path4666"
         style="font-style:normal;font-variant:normal;font-weight:bold;font-stretch:normal;font-family:sans-serif;-inkscape-font-specification:'sans-serif Bold';fill:#ffffff;fill-opacity:1"
         d="m 786.81641,1066.0879 v 17.793 h 2.69531 q 4.60937,0 7.03125,-2.2852 2.4414,-2.2852 2.4414,-6.6406 0,-4.336 -2.42187,-6.6016 -2.42188,-2.2656 -7.05078,-2.2656 z m -7.51954,-5.6836 h 7.92969 q 6.64063,0 9.88281,0.957 3.26172,0.9375 5.58594,3.2032 2.05078,1.9726 3.04688,4.5507 0.99609,2.5782 0.99609,5.8399 0,3.3008 -0.99609,5.8984 -0.9961,2.5781 -3.04688,4.5508 -2.34375,2.2656 -5.625,3.2227 -3.28125,0.9375 -9.84375,0.9375 h -7.92969 z" />
      <path
         inkscape:connector-curvature="0"
         id="path4668"
         style="font-style:normal;font-variant:normal;font-weight:bold;font-stretch:normal;font-family:sans-serif;-inkscape-font-specification:'sans-serif Bold';fill:#ffffff;fill-opacity:1"
         d="m 825.82031,1065.3262 q -3.4375,0 -5.33203,2.539 -1.89453,2.5391 -1.89453,7.1485 0,4.5898 1.89453,7.1289 1.89453,2.539 5.33203,2.539 3.45703,0 5.35156,-2.539 1.89454,-2.5391 1.89454,-7.1289 0,-4.6094 -1.89454,-7.1485 -1.89453,-2.539 -5.35156,-2.539 z m 0,-5.4492 q 7.03125,0 11.01563,4.0234 3.98437,4.0234 3.98437,11.1133 0,7.0703 -3.98437,11.0937 -3.98438,4.0235 -11.01563,4.0235 -7.01172,0 -11.01562,-4.0235 -3.98438,-4.0234 -3.98438,-11.0937 0,-7.0899 3.98438,-11.1133 4.0039,-4.0234 11.01562,-4.0234 z" />
      <path
         inkscape:connector-curvature="0"
         id="path4670"
         style="font-style:normal;font-variant:normal;font-weight:bold;font-stretch:normal;font-family:sans-serif;-inkscape-font-specification:'sans-serif Bold';fill:#ffffff;fill-opacity:1"
         d="m 857.1875,1073.334 q 2.36328,0 3.37891,-0.8789 1.03515,-0.8789 1.03515,-2.8906 0,-1.9922 -1.03515,-2.8516 -1.01563,-0.8594 -3.37891,-0.8594 h -3.16406 v 7.4805 z m -3.16406,5.1953 v 11.0352 h -7.51953 v -29.1602 h 11.48437 q 5.76172,0 8.4375,1.9336 2.69531,1.9336 2.69531,6.1133 0,2.8906 -1.40625,4.7461 -1.38672,1.8554 -4.19922,2.7343 1.54297,0.3516 2.75391,1.6016 1.23047,1.2305 2.48047,3.75 l 4.08203,8.2813 h -8.00781 l -3.55469,-7.2461 q -1.07422,-2.1875 -2.1875,-2.9883 -1.09375,-0.8008 -2.92969,-0.8008 z" />
      <path
         inkscape:connector-curvature="0"
         id="path4672"
         style="font-style:normal;font-variant:normal;font-weight:bold;font-stretch:normal;font-family:sans-serif;-inkscape-font-specification:'sans-serif Bold';fill:#ffffff;fill-opacity:1"
         d="m 877.30469,1060.4043 h 20.29297 v 5.6836 h -12.77344 v 5.4297 h 12.01172 v 5.6836 h -12.01172 v 6.6797 h 13.20312 v 5.6836 h -20.72265 z" />
      <path
         inkscape:connector-curvature="0"
         id="path4674"
         style="font-style:normal;font-variant:normal;font-weight:bold;font-stretch:normal;font-family:sans-serif;-inkscape-font-specification:'sans-serif Bold';fill:#ffffff;fill-opacity:1"
         d="m 924.92187,1061.3223 v 6.1718 q -2.40234,-1.0742 -4.6875,-1.6211 -2.28515,-0.5468 -4.3164,-0.5468 -2.69531,0 -3.98438,0.7422 -1.28906,0.7421 -1.28906,2.3046 0,1.1719 0.85938,1.836 0.8789,0.6445 3.16406,1.1133 l 3.20312,0.6445 q 4.86328,0.9766 6.91407,2.9687 2.05078,1.9922 2.05078,5.6641 0,4.8242 -2.8711,7.1875 -2.85156,2.3438 -8.73047,2.3438 -2.77343,0 -5.5664,-0.5274 -2.79297,-0.5273 -5.58594,-1.5625 v -6.3476 q 2.79297,1.4843 5.39063,2.2461 2.61718,0.7421 5.03906,0.7421 2.46094,0 3.76953,-0.8203 1.30859,-0.8203 1.30859,-2.3437 0,-1.3672 -0.89843,-2.1094 -0.87891,-0.7422 -3.53516,-1.3281 l -2.91016,-0.6446 q -4.375,-0.9375 -6.40625,-2.9882 -2.01172,-2.0508 -2.01172,-5.5274 0,-4.3554 2.8125,-6.6992 2.8125,-2.3437 8.08594,-2.3437 2.40235,0 4.94141,0.371 2.53906,0.3516 5.2539,1.0743 z" />
      <path
         inkscape:connector-curvature="0"
         id="path4676"
         style="font-style:normal;font-variant:normal;font-weight:bold;font-stretch:normal;font-family:sans-serif;-inkscape-font-specification:'sans-serif Bold';fill:#ffffff;fill-opacity:1"
         d="M 945.85937,1075.209 H 958.125 v 5.6836 h -12.26563 z" />
      <path
         inkscape:connector-curvature="0"
         id="path4678"
         style="font-style:normal;font-variant:normal;font-weight:bold;font-stretch:normal;font-family:sans-serif;-inkscape-font-specification:'sans-serif Bold';fill:#ffffff;fill-opacity:1"
         d="m 1004.1016,1087.3965 q -2.8125,1.3672 -5.83988,2.0508 -3.02735,0.6836 -6.25,0.6836 -7.28516,0 -11.54297,-4.0625 -4.25781,-4.0821 -4.25781,-11.0547 0,-7.0508 4.33593,-11.0938 4.33594,-4.0429 11.875,-4.0429 2.91016,0 5.56641,0.5468 2.67582,0.5469 5.03902,1.6211 v 6.0352 q -2.4414,-1.3867 -4.86324,-2.0703 -2.40234,-0.6836 -4.82422,-0.6836 -4.49218,0 -6.93359,2.5195 -2.42188,2.5 -2.42188,7.168 0,4.6289 2.34375,7.1484 2.34375,2.5195 6.66016,2.5195 1.17188,0 2.16797,-0.1367 1.01562,-0.1562 1.81641,-0.4687 v -5.6641 h -4.58985 v -5.0391 h 11.71879 z" />
      <path
         inkscape:connector-curvature="0"
         id="path4680"
         style="font-style:normal;font-variant:normal;font-weight:bold;font-stretch:normal;font-family:sans-serif;-inkscape-font-specification:'sans-serif Bold';fill:#ffffff;fill-opacity:1"
         d="m 1010.7227,1060.4043 h 12.4804 q 5.5664,0 8.5352,2.4805 2.9883,2.4609 2.9883,7.0312 0,4.5899 -2.9883,7.0703 -2.9688,2.461 -8.5352,2.461 h -4.9609 v 10.1172 h -7.5195 z m 7.5195,5.4492 v 8.1445 h 4.1601 q 2.1875,0 3.379,-1.0546 1.1914,-1.0743 1.1914,-3.0274 0,-1.9531 -1.1914,-3.0078 -1.1915,-1.0547 -3.379,-1.0547 z" />
      <path
         inkscape:connector-curvature="0"
         id="path4682"
         style="font-style:normal;font-variant:normal;font-weight:bold;font-stretch:normal;font-family:sans-serif;-inkscape-font-specification:'sans-serif Bold';fill:#ffffff;fill-opacity:1"
         d="m 1053.3594,1065.3262 q -3.4375,0 -5.3321,2.539 -1.8945,2.5391 -1.8945,7.1485 0,4.5898 1.8945,7.1289 1.8946,2.539 5.3321,2.539 3.457,0 5.3515,-2.539 1.8946,-2.5391 1.8946,-7.1289 0,-4.6094 -1.8946,-7.1485 -1.8945,-2.539 -5.3515,-2.539 z m 0,-5.4492 q 7.0312,0 11.0156,4.0234 3.9844,4.0234 3.9844,11.1133 0,7.0703 -3.9844,11.0937 -3.9844,4.0235 -11.0156,4.0235 -7.0117,0 -11.0156,-4.0235 -3.9844,-4.0234 -3.9844,-11.0937 0,-7.0899 3.9844,-11.1133 4.0039,-4.0234 11.0156,-4.0234 z" />
      <path
         inkscape:connector-curvature="0"
         id="path4684"
         style="font-style:normal;font-variant:normal;font-weight:bold;font-stretch:normal;font-family:sans-serif;-inkscape-font-specification:'sans-serif Bold';fill:#ffffff;fill-opacity:1"
         d="m 1108.2617,1061.3223 v 6.1718 q -2.4023,-1.0742 -4.6875,-1.6211 -2.2851,-0.5468 -4.3164,-0.5468 -2.6953,0 -3.9844,0.7422 -1.289,0.7421 -1.289,2.3046 0,1.1719 0.8594,1.836 0.8789,0.6445 3.164,1.1133 l 3.2031,0.6445 q 4.8633,0.9766 6.9141,2.9687 2.0508,1.9922 2.0508,5.6641 0,4.8242 -2.8711,7.1875 -2.8516,2.3438 -8.7305,2.3438 -2.7734,0 -5.5664,-0.5274 -2.793,-0.5273 -5.5859,-1.5625 v -6.3476 q 2.7929,1.4843 5.3906,2.2461 2.6172,0.7421 5.0391,0.7421 2.4609,0 3.7695,-0.8203 1.3086,-0.8203 1.3086,-2.3437 0,-1.3672 -0.8984,-2.1094 -0.879,-0.7422 -3.5352,-1.3281 l -2.9102,-0.6446 q -4.375,-0.9375 -6.4062,-2.9882 -2.0117,-2.0508 -2.0117,-5.5274 0,-4.3554 2.8125,-6.6992 2.8125,-2.3437 8.0859,-2.3437 2.4024,0 4.9414,0.371 2.5391,0.3516 5.2539,1.0743 z" />
      <path
         inkscape:connector-curvature="0"
         id="path4686"
         style="font-style:normal;font-variant:normal;font-weight:bold;font-stretch:normal;font-family:sans-serif;-inkscape-font-specification:'sans-serif Bold';fill:#ffffff;fill-opacity:1"
         d="m 1134.4727,1084.252 h -11.7579 l -1.8554,5.3125 h -7.5586 l 10.8008,-29.1602 h 8.9648 l 10.8008,29.1602 h -7.5586 z m -9.8829,-5.4102 h 7.9883 l -3.9843,-11.6016 z" />
      <path
         inkscape:connector-curvature="0"
         id="path4688"
         style="font-style:normal;font-variant:normal;font-weight:bold;font-stretch:normal;font-family:sans-serif;-inkscape-font-specification:'sans-serif Bold';fill:#ffffff;fill-opacity:1"
         d="m 1147.7344,1060.4043 h 8.3984 l 10.6055,20 v -20 h 7.1289 v 29.1602 h -8.3984 l -10.6055,-20 v 20 h -7.1289 z" />
      <path
         inkscape:connector-curvature="0"
         id="path4690"
         style="font-style:normal;font-variant:normal;font-weight:bold;font-stretch:normal;font-family:sans-serif;-inkscape-font-specification:'sans-serif Bold';fill:#ffffff;fill-opacity:1"
         d="m 1195.1367,1060.4043 h 9.5703 l 6.6407,15.6055 6.6796,-15.6055 h 9.5508 v 29.1602 h -7.1093 v -21.3282 l -6.7188,15.7227 h -4.7656 l -6.7188,-15.7227 v 21.3282 h -7.1289 z" />
      <path
         inkscape:connector-curvature="0"
         id="path4692"
         style="font-style:normal;font-variant:normal;font-weight:bold;font-stretch:normal;font-family:sans-serif;-inkscape-font-specification:'sans-serif Bold';fill:#ffffff;fill-opacity:1"
         d="m 1252.6367,1084.252 h -11.7578 l -1.8555,5.3125 h -7.5586 l 10.8008,-29.1602 h 8.9649 l 10.8008,29.1602 h -7.5586 z m -9.8828,-5.4102 h 7.9883 l -3.9844,-11.6016 z" />
      <path
         inkscape:connector-curvature="0"
         id="path4694"
         style="font-style:normal;font-variant:normal;font-weight:bold;font-stretch:normal;font-family:sans-serif;-inkscape-font-specification:'sans-serif Bold';fill:#ffffff;fill-opacity:1"
         d="m 1276.582,1073.334 q 2.3633,0 3.3789,-0.8789 1.0352,-0.8789 1.0352,-2.8906 0,-1.9922 -1.0352,-2.8516 -1.0156,-0.8594 -3.3789,-0.8594 h -3.164 v 7.4805 z m -3.164,5.1953 v 11.0352 h -7.5196 v -29.1602 h 11.4844 q 5.7617,0 8.4375,1.9336 2.6953,1.9336 2.6953,6.1133 0,2.8906 -1.4062,4.7461 -1.3867,1.8554 -4.1992,2.7343 1.5429,0.3516 2.7539,1.6016 1.2304,1.2305 2.4804,3.75 l 4.0821,8.2813 h -8.0078 l -3.5547,-7.2461 q -1.0743,-2.1875 -2.1875,-2.9883 -1.0938,-0.8008 -2.9297,-0.8008 z" />
      <path
         inkscape:connector-curvature="0"
         id="path4696"
         style="font-style:normal;font-variant:normal;font-weight:bold;font-stretch:normal;font-family:sans-serif;-inkscape-font-specification:'sans-serif Bold';fill:#ffffff;fill-opacity:1"
         d="m 1296.6992,1060.4043 h 7.5196 v 29.1602 h -7.5196 z" />
      <path
         inkscape:connector-curvature="0"
         id="path4698"
         style="font-style:normal;font-variant:normal;font-weight:bold;font-stretch:normal;font-family:sans-serif;-inkscape-font-specification:'sans-serif Bold';fill:#ffffff;fill-opacity:1"
         d="m 1311.582,1060.4043 h 8.3985 l 10.6054,20 v -20 h 7.1289 v 29.1602 h -8.3984 l -10.6055,-20 v 20 h -7.1289 z" />
      <path
         inkscape:connector-curvature="0"
         id="path4700"
         style="font-style:normal;font-variant:normal;font-weight:bold;font-stretch:normal;font-family:sans-serif;-inkscape-font-specification:'sans-serif Bold';fill:#ffffff;fill-opacity:1"
         d="m 1358.3789,1065.3262 q -3.4375,0 -5.332,2.539 -1.8946,2.5391 -1.8946,7.1485 0,4.5898 1.8946,7.1289 1.8945,2.539 5.332,2.539 3.457,0 5.3516,-2.539 1.8945,-2.5391 1.8945,-7.1289 0,-4.6094 -1.8945,-7.1485 -1.8946,-2.539 -5.3516,-2.539 z m 0,-5.4492 q 7.0313,0 11.0156,4.0234 3.9844,4.0234 3.9844,11.1133 0,7.0703 -3.9844,11.0937 -3.9843,4.0235 -11.0156,4.0235 -7.0117,0 -11.0156,-4.0235 -3.9844,-4.0234 -3.9844,-11.0937 0,-7.0899 3.9844,-11.1133 4.0039,-4.0234 11.0156,-4.0234 z" />
    </g>
  </g>
</svg>
